# AST/ASF file generated using VICON BodyLanguage
# -----------------------------------------------
:version 1.10
:name VICON
:units
  mass 1.0
  length 0.45
  angle deg
:documentation
   .ast/.asf automatically generated from VICON data using
   VICON BodyBuilder and BodyLanguage model FoxedUp or BRILLIANT.MOD
:root
   order TX TY TZ RX RY RZ
   axis XYZ
   position 0 0 0  
   orientation 0 0 0 
:bonedata
  begin
     id 1 
     name lhipjoint
     direction 0.661853 -0.702389 0.261917 
     length 2.64193 
     axis 0 0 0  XYZ
  end
  begin
     id 2 
     name lfemur
     direction 0.34202 -0.939693 0  
     length 7.01722  
     axis 0 0 20  XYZ
    dof rx ry rz
    limits (-160.0 20.0)
           (-70.0 70.0)
           (-60.0 70.0)
  end
  begin
     id 3 
     name ltibia
     direction 0.34202 -0.939693 0   
     length 8.25008   
     axis 0 0 20   XYZ
    dof rx
    limits (-10.0 170.0)
  end
  begin
     id 4 
     name lfoot
     direction 0.0709916 -0.195048 0.978221   
     length 2.31941   
     axis -90 7.62852e-016 20   XYZ
    dof rx rz
    limits (-45.0 90.0)
           (-70.0 20.0)
  end
  begin
     id 5 
     name ltoes
     direction 1.53586e-011 -4.22017e-011 1   
     length 1.16486   
     axis -90 7.62852e-016 20   XYZ
    dof rx
    limits (-90.0 20.0)
  end
  begin
     id 6 
     name rhipjoint
     direction -0.638185 -0.721362 0.268992   
     length 2.57244  
     axis 0 0 0  XYZ 
  end
  begin
     id 7 
     name rfemur
     direction -0.34202 -0.939693 0   
     length 7.07017   
     axis 0 0 -20   XYZ
    dof rx ry rz
    limits (-160.0 20.0)
           (-70.0 70.0)
           (-70.0 60.0)
  end
  begin
     id 8 
     name rtibia
     direction -0.34202 -0.939693 0   
     length 8.20386   
     axis 0 0 -20   XYZ
    dof rx
    limits (-10.0 170.0)
 end
 begin
     id 9 
     name rfoot
     direction -0.0822429 -0.225961 0.970658   
     length 2.32215  
     axis -90 -7.62852e-016 -20   XYZ
    dof rx rz
    limits (-45.0 90.0)
           (-20.0 70.0)
  end
  begin
     id 10 
     name rtoes
     direction -1.53597e-011 -4.21689e-011 1   
     length 1.16333   
     axis -90 -7.62852e-016 -20   XYZ
    dof rx
    limits (-90.0 20.0)
  end
  begin
     id 11 
     name lowerback
     direction -0.0131557 0.998589 -0.0514484   
     length 2.14993   
     axis 0 0 0   XYZ
    dof rx ry rz
    limits (-20.0 45.0)
           (-30.0 30.0)
           (-30.0 30.0)
  end
  begin
     id 12 
     name upperback
     direction -0.000776481 0.999993 0.00352685   
     length 2.15301   
     axis 0 0 0   XYZ
    dof rx ry rz
    limits (-20.0 45.0)
           (-30.0 30.0)
           (-30.0 30.0)
  end
  begin
     id 13 
     name thorax
     direction 0.00438186 0.999609 0.0276143   
     length 2.15424   
     axis 0 0 0   XYZ
    dof rx ry rz
    limits (-20.0 45.0)
           (-30.0 30.0)
           (-30.0 30.0)
  end
  begin
     id 14 
     name lowerneck
     direction -0.0488006 0.998094 0.0377807   
     length 1.90481   
     axis 0 0 0   XYZ
    dof rx ry rz
    limits (-20.0 45.0)
           (-30.0 30.0)
           (-30.0 30.0)
  end
  begin
     id 15 
     name upperneck
     direction 0.0443769 0.990702 -0.12861   
     length 1.91305   
     axis 0 0 0   XYZ
    dof rx ry rz
    limits (-20.0 45.0)
           (-30.0 30.0)
           (-30.0 30.0)
  end
  begin
     id 16
     name head
     direction 0.0165599 0.998647 -0.0492982  
     length 1.92369  
     axis 0 0 0   XYZ
    dof rx ry rz
    limits (-20.0 45.0)
           (-30.0 30.0)
           (-30.0 30.0)
  end
  begin
     id 17 
     name lclavicle
     direction 0.911936 0.410197 -0.0105506  
     length 3.52622  
     axis 0 0 0   XYZ
    dof ry rz
    limits (-20.0 10.0)
           (0.0 20.0)
  end
  begin
     id 18 
     name lhumerus
     direction 1 -4.48974e-011 -2.48591e-028   
     length 5.47651   
     axis 180 -30 -90   XYZ
    dof rx ry rz
    limits (-60.0 90.0)
           (-90.0 90.0)
           (-90.0 90.0)
  end
  begin
     id 19
     name lradius
     direction 1 -4.48938e-011 -4.40099e-027   
     length 3.09058   
     axis 180 -30 -90   XYZ
    dof rx
    limits (-10.0 170.0)
  end
  begin
     id 20
     name lwrist
     direction 1 -4.49042e-011 -2.99852e-027   
     length 1.54529   
     axis 1.95339e-015 90 90   XYZ
    dof ry
    limits (-180.0 0.0)
 end
  begin
     id 21 
     name lhand
     direction 1 -4.48815e-011 -5.98193e-027   
     length 0.771611   
     axis 3.82337e-015 90 90   XYZ
    dof rx rz
    limits (-90.0 90.0)
           (-45.0 45.0)
  end
  begin
     id 22 
     name lfingers
     direction 1 -4.49034e-011 -1.1993e-026   
     length 0.622093   
     axis 7.64668e-015 90 90   XYZ
    dof rx
    limits (0.0 90.0)
  end
  begin
     id 23
     name lthumb
     direction 0.707107 -6.34867e-011 0.707107   
     length 0.893204   
     axis -90 45 -1.62303e-014   XYZ
    dof rx rz
    limits (-45.0 45.0)
           (-45.0 45.0)
  end
  begin
     id 24 
     name rclavicle
     direction -0.93442 0.355634 -0.0195692   
     length 3.62463  
     axis 0 0 0   XYZ 
    dof ry rz
    limits (-10.0 20.0)
           (-20.0 0.0)
  end
  begin
     id 25 
     name rhumerus
     direction -1 -4.48957e-011 -1.19147e-027  
     length 5.14182   
     axis 180 30 90   XYZ
    dof rx ry rz
    limits (-90.0 60.0)
           (-90.0 90.0)
           (-90.0 90.0)
  end
  begin
     id 26 
     name rradius
     direction -1 -4.48952e-011 -3.81062e-027   
     length 3.35565   
     axis 180 30 90   XYZ
    dof rx
    limits (-10.0 170.0)
  end
  begin
     id 27 
     name rwrist
     direction -1 -4.48973e-011 -2.99621e-027   
     length 1.67782   
     axis 1.95339e-015 -90 -90   XYZ
    dof ry
    limits (-180.0 0.0)
  end
  begin
     id 28
     name rhand
     direction -1 -4.48895e-011 -5.98727e-027   
     length 0.801042   
     axis 3.82337e-015 -90 -90   XYZ
    dof rx rz
    limits (-90.0 90.0)
           (-45.0 45.0)
  end
  begin
     id 29
     name rfingers
     direction -1 -4.49065e-011 -1.19972e-026   
     length 0.645821   
     axis 7.64668e-015 -90 -90   XYZ
    dof rx
    limits (0.0 90.0)
  end
  begin
     id 30
     name rthumb
     direction -0.707107 -6.34957e-011 0.707107   
     length 0.927273   
     axis -90 -45 1.62303e-014   XYZ
    dof rx rz
    limits (-45.0 45.0)
           (-45.0 45.0)
  end
:hierarchy
  begin
    root lhipjoint rhipjoint lowerback
    lhipjoint lfemur
    lfemur ltibia
    ltibia lfoot
    lfoot ltoes
    rhipjoint rfemur
    rfemur rtibia
    rtibia rfoot
    rfoot rtoes
    lowerback upperback
    upperback thorax
    thorax lowerneck lclavicle rclavicle
    lowerneck upperneck
    upperneck head
    lclavicle lhumerus
    lhumerus lradius
    lradius lwrist
    lwrist lhand lthumb
    lhand lfingers
    rclavicle rhumerus
    rhumerus rradius
    rradius rwrist
    rwrist rhand rthumb
    rhand rfingers
  end

#!OML:ASF E:\Style4\Style4.ASF
:FULLY-SPECIFIED
:DEGREES
133
root -1.41573 17.991 -0.958377 1.79666 7.99684 -4.17209
lowerback 8.24096 4.03809 -3.32739
upperback 8.49966 5.32236 -3.00324
thorax 4.25782 2.60262 -1.50221
lowerneck 0.106437 -6.46537 -5.97079
upperneck 7.62976 -10.0132 19.497
head 3.52212 -4.57628 6.6234
rclavicle -4.21423e-014 2.70347e-014
rhumerus -44.1662 43.9836 -101.405
rradius 53.4582
rwrist -31.2942
rhand 6.24159 0.387343
rfingers 7.12502
rthumb 31.5535 -26.9071
lclavicle -4.21423e-014 2.70347e-014
lhumerus -41.6164 -18.0227 90.4526
lradius 65.7342
lwrist 20.5834
lhand -18.2648 30.7679
lfingers 7.12502
lthumb 8.01478 60.5959
rfemur -8.09579 -3.82442 29.1123
rtibia 18.2768
rfoot -13.7751 -22.5591
rtoes 0.535394
lfemur -14.9014 -12.2893 -8.14281
ltibia 26.3957
lfoot -16.984 6.7477
ltoes -15.1927
134
root -1.38333 17.9936 -0.964146 1.75992 8.46407 -4.05547
lowerback 8.27917 4.06952 -3.20157
upperback 8.58399 5.37281 -2.92959
thorax 4.33055 2.63254 -1.49698
lowerneck 0.260209 -6.59723 -5.8834
upperneck 7.4481 -10.1656 19.5102
head 3.45934 -4.66513 6.60905
rclavicle -3.49861e-014 -3.18055e-014
rhumerus -43.8452 44.422 -101.269
rradius 53.1244
rwrist -31.664
rhand 6.36422 0.161728
rfingers 7.12502
rthumb 31.6703 -27.1098
lclavicle -3.49861e-014 -3.18055e-014
lhumerus -41.2953 -18.1781 90.55
lradius 65.2231
lwrist 20.5904
lhand -17.9951 30.332
lfingers 7.12502
lthumb 8.27511 60.1499
rfemur -8.12565 -3.96834 28.884
rtibia 18.4334
rfoot -13.7268 -22.8845
rtoes -0.153139
lfemur -14.9876 -12.5989 -8.37199
ltibia 26.3286
lfoot -16.5394 6.58882
ltoes -14.9868
135
root -1.34814 17.9951 -0.970172 1.67758 8.88524 -3.98685
lowerback 8.33206 4.0977 -3.07655
upperback 8.68907 5.41691 -2.79272
thorax 4.41072 2.65697 -1.42583
lowerneck 0.385264 -6.7393 -5.86257
upperneck 7.28829 -10.3278 19.4428
head 3.40826 -4.76038 6.57852
rclavicle 1.66979e-014 -5.24792e-014
rhumerus -43.4813 44.965 -101.037
rradius 52.7496
rwrist -32.0307
rhand 6.64141 -0.103484
rfingers 7.12502
rthumb 31.9343 -27.3226
lclavicle 1.66979e-014 -5.24792e-014
lhumerus -40.9416 -18.1961 90.6924
lradius 64.7043
lwrist 20.4554
lhand -17.5757 30.2445
lfingers 7.12502
lthumb 8.6798 60.046
rfemur -8.11018 -4.093 28.6776
rtibia 18.5814
rfoot -13.7263 -23.2008
rtoes -0.583515
lfemur -15.0025 -12.8009 -8.57185
ltibia 26.2379
lfoot -16.0645 6.33822
ltoes -13.8897
136
root -1.31215 17.9974 -0.976411 1.56679 9.21642 -3.95508
lowerback 8.39299 4.16925 -2.85675
upperback 8.80675 5.5234 -2.66503
thorax 4.51009 2.7181 -1.41906
lowerneck 0.542855 -6.91826 -5.95444
upperneck 7.08409 -10.5434 19.5013
head 3.35824 -4.88582 6.60594
rclavicle 1.03368e-014 7.95139e-015
rhumerus -43.0516 45.3679 -100.769
rradius 52.299
rwrist -32.3519
rhand 6.8707 -0.3324
rfingers 7.12502
rthumb 32.1526 -27.5076
lclavicle 1.03368e-014 7.95139e-015
lhumerus -40.5 -18.2729 90.8096
lradius 64.0601
lwrist 20.3786
lhand -17.213 30.06
lfingers 7.12502
lthumb 9.02981 59.8467
rfemur -8.03533 -4.13132 28.5062
rtibia 18.6671
rfoot -13.8702 -23.475
rtoes -0.354091
lfemur -14.9366 -12.8817 -8.75391
ltibia 26.1175
lfoot -15.6086 6.15172
ltoes -12.9796
137
root -1.27546 18.0029 -0.982707 1.4936 9.55907 -3.83327
lowerback 8.42923 4.22124 -2.76485
upperback 8.92019 5.59833 -2.52782
thorax 4.60608 2.75609 -1.32905
lowerneck 0.711941 -7.06914 -6.02939
upperneck 6.82845 -10.7096 19.52
head 3.28173 -4.99091 6.62154
rclavicle 7.27552e-014 -4.85035e-014
rhumerus -42.6748 45.7918 -100.51
rradius 51.8611
rwrist -32.7608
rhand 7.15914 -0.669012
rfingers 7.12502
rthumb 32.4272 -27.7884
lclavicle 7.27552e-014 -4.85035e-014
lhumerus -39.9886 -18.2634 90.9482
lradius 63.2332
lwrist 20.2757
lhand -16.9801 29.7965
lfingers 7.12502
lthumb 9.25455 59.5734
rfemur -7.9789 -4.10991 28.2426
rtibia 18.7286
rfoot -13.8855 -23.8423
rtoes -0.202045
lfemur -14.8921 -12.9536 -9.04087
ltibia 25.9724
lfoot -15.13 6.15098
ltoes -12.9938
138
root -1.23511 18.0104 -0.988248 1.47408 9.89633 -3.61624
lowerback 8.41264 4.23491 -2.79041
upperback 9.01166 5.61825 -2.39543
thorax 4.69694 2.75984 -1.17388
lowerneck 0.86292 -7.15523 -6.02505
upperneck 6.5961 -10.782 19.4265
head 3.19213 -5.04821 6.59315
rclavicle 7.51406e-014 -6.36111e-014
rhumerus -42.3085 46.3352 -100.273
rradius 51.3248
rwrist -33.1535
rhand 7.46889 -0.865559
rfingers 7.12502
rthumb 32.7219 -27.924
lclavicle 7.51406e-014 -6.36111e-014
lhumerus -39.5555 -18.1267 91.0792
lradius 62.5013
lwrist 20.2144
lhand -16.6386 29.8256
lfingers 7.12502
lthumb 9.58402 59.5877
rfemur -7.99245 -4.09038 27.8646
rtibia 18.8476
rfoot -13.8691 -24.1821
rtoes -0.569706
lfemur -14.8668 -13.0523 -9.43109
ltibia 25.7868
lfoot -14.7367 6.12423
ltoes -13.3288
